<svg width="120" height="120" viewBox="0 0 120 120" fill="none" xmlns="http://www.w3.org/2000/svg"><rect width="120" height="120" rx="60" fill="#FCBF37" fill-opacity=".4"/><rect x="39.598" y="32" width="40" height="40" rx="20" fill="#fff"/><path fill-rule="evenodd" clip-rule="evenodd" d="M97.782 106.613A60.409 60.409 0 00105.597 99a60.366 60.366 0 00-6.628-6.624l-1.187 14.237zm-74.178 1.091a53.57 53.57 0 01-.917-.715l-.95-15.207A60.37 60.37 0 0014.402 99a60.366 60.366 0 009.2 8.704zM44.58 80h30.84C70.5 78.695 65.33 78 60 78c-5.331 0-10.5.695-15.42 2z" fill="#FCBF37"/><path opacity=".6" fill-rule="evenodd" clip-rule="evenodd" d="M22.687 106.989L21 80h79l-2.218 26.613A59.75 59.75 0 0160 120a59.744 59.744 0 01-37.313-13.011z" fill="#fff"/><path d="M60 108a4 4 0 100-8 4 4 0 000 8z" fill="#FCBF37"/></svg>