<svg width="120" height="120" viewBox="0 0 120 120" fill="none" xmlns="http://www.w3.org/2000/svg"><rect width="120" height="120" rx="60" fill="#F06724" fill-opacity=".4"/><mask id="a" maskUnits="userSpaceOnUse" x="0" y="0" width="120" height="120"><path fill-rule="evenodd" clip-rule="evenodd" d="M60 0C26.863 0 0 26.863 0 60s26.863 60 60 60 60-26.863 60-60S93.137 0 60 0z" fill="#52C41A"/></mask><g mask="url(#a)"><mask id="b" maskUnits="userSpaceOnUse" x="-11" y="-11" width="142" height="142"><rect x="-10.588" y="-10.588" width="141.176" height="141.176" rx="70.588" fill="#F06724"/></mask><g mask="url(#b)"><path d="M72.834 38.824H47.166L36.47 60l10.695 21.176h25.668L83.53 60 72.834 38.824z" fill="#fff"/><path d="M72.834 88.235H47.166L36.47 109.412l10.695 21.176h25.668l10.695-21.176-10.695-21.177z" fill="#F06724"/><path opacity=".6" d="M115.187 63.53H89.519L78.823 84.705l10.696 21.176h25.668l10.695-21.176-10.695-21.177z" fill="#fff"/><path d="M115.187 14.118H89.519L78.823 35.294 89.52 56.471h25.668l10.695-21.177-10.695-21.176z" fill="#F06724"/><path opacity=".6" d="M72.834-10.588H47.166L36.47 10.588l10.695 21.177h25.668L83.53 10.588 72.834-10.588z" fill="#fff"/><path d="M30.481 14.118H4.813L-5.882 35.294 4.813 56.471H30.48l10.695-21.177-10.695-21.176z" fill="#F06724"/><path opacity=".6" d="M30.481 63.53H4.813L-5.882 84.705l10.695 21.176H30.48l10.695-21.176-10.695-21.177z" fill="#fff"/></g></g></svg>