<svg width="120" height="120" viewBox="0 0 120 120" fill="none" xmlns="http://www.w3.org/2000/svg"><rect width="120" height="120" rx="60" fill="#833CA3" fill-opacity=".4"/><mask id="a" maskUnits="userSpaceOnUse" x="9" y="9" width="102" height="102"><circle cx="60" cy="60" r="51" fill="#C4C4C4"/></mask><g mask="url(#a)" fill="#fff"><path opacity=".6" d="M57.883 88.755a37.267 37.267 0 014.23-38.901L76 32l13.886 17.854a37.267 37.267 0 014.23 38.901l-6.677 14.022a12.67 12.67 0 01-22.879 0l-6.677-14.022z"/><path opacity=".6" d="M25.884 88.755a37.267 37.267 0 014.23-38.901L44 32l13.886 17.854a37.267 37.267 0 014.23 38.901l-6.677 14.022a12.67 12.67 0 01-22.879 0l-6.677-14.022z"/><path d="M40.096 95.984a42.054 42.054 0 014.758-43.81L60.5 32l15.646 20.173a42.054 42.054 0 014.757 43.811L73.36 111.87a14.238 14.238 0 01-25.72 0l-7.544-15.886z"/></g><path d="M120 60c-33.137 0-60 26.863-60 60 33.137 0 60-26.863 60-60zM0 60c33.137 0 60 26.863 60 60-33.137 0-60-26.863-60-60z" fill="#833CA3"/></svg>