<svg width="120" height="120" viewBox="0 0 120 120" fill="none" xmlns="http://www.w3.org/2000/svg"><rect width="120" height="120" rx="60" fill="#3B67B2" fill-opacity=".4"/><rect x="40" y="32" width="40" height="40" rx="20" fill="#fff"/><path fill-rule="evenodd" clip-rule="evenodd" d="M105.597 99C94.593 111.854 78.247 120 60 120c-18.248 0-34.593-8.146-45.598-21C25.407 86.146 41.752 78 60 78c18.248 0 34.593 8.146 45.597 21z" fill="#3B67B2"/><path opacity=".6" fill-rule="evenodd" clip-rule="evenodd" d="M6.817 32.197C2.463 40.508 0 49.967 0 60c0 4.039.4 7.985 1.16 11.8.928.132 1.876.2 2.84.2 11.046 0 20-8.954 20-20 0-10.09-7.471-18.434-17.183-19.803zM113.262 32.349C117.567 40.623 120 50.028 120 60c0 4.08-.407 8.067-1.184 11.919A20.23 20.23 0 01117 72c-11.046 0-20-8.954-20-20 0-9.768 7.003-17.901 16.262-19.651z" fill="#fff"/></svg>