<svg width="105" height="29" viewBox="0 0 105 29" fill="none" xmlns="http://www.w3.org/2000/svg">
  <path d="M22.34 12.34c0-.285-.105-.557-.317-.82a1.06 1.06 0 00-.794-.328h-1.142c-.275 0-.54-.109-.794-.327-.212-.263-.318-.536-.318-.82 0-.285.106-.558.318-.82.255-.22.517-.328.794-.328h1.205c.339 0 .613-.13.825-.394.19-.263.317-.579.38-.953.19-1.29.567-2.4 1.127-3.332a8.628 8.628 0 012.048-2.347A8.373 8.373 0 0128.291.46 9.24 9.24 0 0131.164 0c.36 0 .666.13.92.394.255.263.38.58.38.952 0 .373-.127.69-.38.953-.233.263-.538.394-.92.394a6.82 6.82 0 00-1.952.278 5.937 5.937 0 00-1.762.87c-1.037.765-1.8 1.958-2.285 3.577-.106.35-.053.678.158.984.212.327.486.493.825.493h4.667c.274 0 .539.109.793.327.212.263.318.536.318.82 0 .285-.106.558-.317.82-.255.219-.52.328-.794.328h-4.76c-.275 0-.54.11-.794.328-.212.262-.318.535-.318.82V26.03c0 .372-.127.69-.38.953-.233.263-.54.393-.921.393-.36 0-.667-.13-.921-.393a1.315 1.315 0 01-.38-.953V12.34zM51.699 10.526v7.484c0 1.598-.255 2.987-.765 4.17-.51 1.18-1.181 2.166-2.018 2.953a8.148 8.148 0 01-2.846 1.756 9.417 9.417 0 01-3.212.575 9.372 9.372 0 01-3.212-.575 7.997 7.997 0 01-2.83-1.756c-.827-.787-1.5-1.773-2.019-2.953-.52-1.181-.78-2.572-.78-4.17v-7.484c0-.373.127-.69.38-.953.255-.263.56-.394.921-.394s.667.13.922.394c.254.263.38.58.38.953v7.484c0 1.16.18 2.166.539 3.02.36.853.83 1.559 1.413 2.118a5.507 5.507 0 001.983 1.231c.74.263 1.503.394 2.285.394.782 0 1.55-.13 2.301-.394a5.46 5.46 0 002-1.231c.581-.557 1.052-1.265 1.412-2.118.359-.854.54-1.859.54-3.02v-7.484c0-.373.123-.69.37-.953.246-.263.55-.394.915-.394.364 0 .674.13.93.394.261.263.39.58.39.953zM72.72 26.032c0 .372-.13.69-.386.952a1.254 1.254 0 01-.931.394 1.2 1.2 0 01-.915-.394 1.339 1.339 0 01-.37-.952V18.01c0-1.16-.181-2.167-.54-3.02-.36-.854-.83-1.56-1.413-2.118a5.485 5.485 0 00-1.999-1.232 6.916 6.916 0 00-2.3-.394c-.785 0-1.545.131-2.286.394a5.48 5.48 0 00-1.983 1.232c-.582.557-1.053 1.264-1.413 2.118-.36.853-.54 1.86-.54 3.02v8.022c0 .372-.127.69-.38.952a1.23 1.23 0 01-.92.394c-.361 0-.667-.13-.922-.394a1.315 1.315 0 01-.38-.952V18.01c0-1.598.259-2.987.78-4.17.52-1.18 1.192-2.167 2.019-2.954a7.998 7.998 0 012.83-1.756 9.418 9.418 0 013.212-.574c1.082 0 2.152.19 3.212.574a8.179 8.179 0 012.846 1.756c.837.787 1.51 1.773 2.018 2.954.508 1.18.763 2.572.763 4.17v8.022h-.002zM96.015 8.825c.36 0 .666.132.92.4.256.264.381.586.381.962 0 .378-.127.693-.38.947-.255.255-.56.382-.921.382h-7.757c-1.121 0-2.095.185-2.92.557-.826.372-1.508.86-2.048 1.461a5.731 5.731 0 00-1.19 2.067 7.591 7.591 0 000 4.743c.255.766.65 1.45 1.19 2.052.538.602 1.222 1.09 2.047 1.461.826.372 1.8.558 2.92.558h7.758c.36 0 .666.13.92.393.256.263.381.58.381.953 0 .372-.127.69-.38.953a1.23 1.23 0 01-.921.393h-7.757c-1.545 0-2.89-.269-4.032-.806-1.142-.538-2.095-1.234-2.857-2.09a8.428 8.428 0 01-1.7-2.926 10.32 10.32 0 01-.554-3.322c0-1.118.186-2.225.555-3.32a8.534 8.534 0 011.699-2.942c.762-.866 1.715-1.563 2.857-2.09 1.143-.525 2.487-.788 4.032-.788h7.757v.002z" fill="#000"/>
  <path d="M9.168 27.856c5.064 0 9.168-4.245 9.168-9.482 0-5.236-4.104-9.48-9.168-9.48C4.105 8.893 0 13.137 0 18.373c0 5.237 4.105 9.482 9.168 9.482z" fill="#F06724"/>
  <path d="M15.992 15.438a7.649 7.649 0 00-1.593-2.473 7.335 7.335 0 00-2.391-1.648 7.06 7.06 0 00-2.844-.59c-.984 0-1.928.196-2.834.59-.9.38-1.695.93-2.39 1.648a7.616 7.616 0 00-1.594 2.473 7.748 7.748 0 00-.57 2.94c0 1.017.19 1.995.57 2.93.366.93.9 1.754 1.593 2.473A7.193 7.193 0 006.33 25.43c.906.393 1.85.59 2.834.59a7.06 7.06 0 002.844-.59 7.22 7.22 0 00.89-.456l-.002-.002a.756.756 0 00.374-.963.718.718 0 00-.964-.368c-.037.016-.069.037-.102.059a6.136 6.136 0 01-.75.399 5.867 5.867 0 01-2.294.458 5.84 5.84 0 01-2.283-.458 6.236 6.236 0 01-1.948-1.343 6.475 6.475 0 01-1.3-2.014 6.4 6.4 0 01-.442-2.362c0-.828.147-1.617.443-2.371a6.475 6.475 0 011.299-2.015 6.226 6.226 0 011.948-1.342 5.84 5.84 0 012.283-.458c.8 0 1.564.152 2.293.458a6.27 6.27 0 011.948 1.342c.557.59.99 1.263 1.3 2.015.296.754.443 1.543.443 2.371l-.01.285v.01a4.223 4.223 0 01-.059.611c-.002.026-.006.045-.008.068 0 .016-.004.032-.004.047l-.002.024a9.397 9.397 0 01-.006.052l-.002.02a.61.61 0 01-.025.132l-.008.03a1.094 1.094 0 01-.076.179c-.065.109-.12.173-.212.26a1.18 1.18 0 01-.343.203.992.992 0 01-.313.057.995.995 0 01-.976-.822c-.077-.261-.106-.585-.087-.973v-.183c0-.543-.102-1.062-.305-1.557a4.024 4.024 0 00-.818-1.262 3.862 3.862 0 00-1.22-.844 3.696 3.696 0 00-1.506-.316c-.517 0-1.017.106-1.495.316-.453.197-.86.48-1.221.844a4.002 4.002 0 00-.817 1.262 4.046 4.046 0 00-.306 1.557c0 .536.102 1.052.306 1.547.19.468.462.889.817 1.263.36.366.768.649 1.22.844.479.21.979.315 1.496.315.637 0 1.237-.152 1.801-.458.557-.311.945-.627 1.16-.947.093.143.318.32.679.53.374.217.774.326 1.201.326.478 0 .92-.133 1.319-.398.408-.257.702-.594.886-1.007.111-.177.198-.452.26-.83a7.79 7.79 0 00-.478-4.127zm-4.407 3.246c-.02.074-.036.15-.05.224-.052.279-.154.54-.305.784a2.175 2.175 0 01-.541.63 2.317 2.317 0 01-1.527.56c-.321 0-.633-.064-.935-.193a2.274 2.274 0 01-.778-.54 2.334 2.334 0 01-.521-.804 2.628 2.628 0 010-1.943c.125-.312.298-.58.521-.805a2.362 2.362 0 011.713-.733 2.389 2.389 0 011.723.733c.223.224.396.493.521.805.126.312.186.637.186.976a3.93 3.93 0 01-.007.306z" fill="#fff"/>
  <path d="M103.75 15.814a14.015 14.015 0 00-.776-2.475c-.337-.806-.743-1.6-1.221-2.379a29.48 29.48 0 00-1.603-2.348h-.043l.027-.002s-.257-.446-.9-.428c-.642.017-.75.29-.664.428l.004.002c1.15 1.616 1.976 3.22 2.477 4.813.502 1.594.753 3.275.753 5.045 0 1.712-.247 3.359-.739 4.94-.49 1.568-1.311 3.138-2.465 4.714-.012.006-.024.012-.028.02-.086.136.022.411.665.429.58.015.844-.343.889-.413h.028c1.282-1.446 2.248-3.009 2.896-4.687.649-1.677.974-3.345.974-5.001a12.604 12.604 0 00-.274-2.658zM80.138 28.12c-1.154-1.574-1.976-3.146-2.466-4.715a16.454 16.454 0 01-.738-4.94c0-1.768.25-3.45.752-5.044.502-1.594 1.327-3.197 2.477-4.813l.004-.002c.087-.136-.021-.41-.664-.428-.643-.018-.9.428-.9.428s.012.002.028.002h-.043a30.109 30.109 0 00-1.603 2.348 17.51 17.51 0 00-1.221 2.38 14.032 14.032 0 00-.776 2.474c-.18.842-.27 1.726-.27 2.654 0 1.656.324 3.324.973 5.002.649 1.677 1.615 3.24 2.897 4.686h.027c.045.07.31.428.89.413.643-.018.75-.29.664-.429l-.031-.015z" fill="#F06724"/>
</svg>
