<svg xmlns="http://www.w3.org/2000/svg">
  <defs>
    <clipPath id="clip0">
      <rect width="20" height="20" fill="white"/>
    </clipPath>
    <radialGradient id="paint_radial" cx="0" cy="0" r="1" gradientUnits="userSpaceOnUse" gradientTransform="translate(5.78176 20.3864) rotate(-90) scale(17.8393 16.592)">
      <stop stop-color="#FFDD55"/>
      <stop offset="0.1" stop-color="#FFDD55"/>
      <stop offset="0.5" stop-color="#FF543E"/>
      <stop offset="1" stop-color="#C837AB"/>
    </radialGradient>
  </defs>
  <symbol id="acoustics" viewBox="0 0 20 20">
    <path
      fill-rule="evenodd"
      clip-rule="evenodd"
      d="M4.85429 1.42358C1.94582 3.17241 0 6.35888 0 9.99982C0 13.6407 1.94578 16.8272 4.85419 18.576L5.88334 16.8608C3.55662 15.4617 2 12.9125 2 9.99982C2 7.08706 3.55666 4.53789 5.88344 3.13883L4.85429 1.42358ZM10 19.9998L9.94178 19.9997H10.0582L10 19.9998ZM20 9.99982C20 13.6407 18.0542 16.8272 15.1458 18.576L14.1167 16.8608C16.4434 15.4617 18 12.9125 18 9.99982C18 7.08706 16.4433 4.53789 14.1166 3.13883L15.1457 1.42358C18.0542 3.17241 20 6.35888 20 9.99982ZM16.25 9.99982C16.25 12.2754 15.0339 14.2669 13.2162 15.3599L12.187 13.6447C13.4231 12.9014 14.25 11.5472 14.25 9.99982C14.25 8.45241 13.423 7.09816 12.1869 6.35491L13.2161 4.63967C15.0339 5.73268 16.25 7.72423 16.25 9.99982ZM5.75 9.99982C5.75 11.5472 6.57694 12.9014 7.81299 13.6447L6.78384 15.3599C4.9661 14.2669 3.75 12.2754 3.75 9.99982C3.75 7.72423 4.96614 5.73268 6.78394 4.63967L7.81309 6.35491C6.57698 7.09816 5.75 8.45241 5.75 9.99982ZM10 12C11.1046 12 12 11.1046 12 10C12 8.89544 11.1046 8.00001 10 8.00001C8.89543 8.00001 8 8.89544 8 10C8 11.1046 8.89543 12 10 12Z"
      fill="#F06724"/>
  </symbol>
  <symbol id="angle-arrow-down" viewBox="0 0 16 16">
    <g opacity="0.4">
      <path d="M4.5 6.5L8 10L11.5 6.5" stroke="#333333" stroke-width="2"/>
    </g>
  </symbol>
  <symbol id="angle-arrow-right" viewBox="0 0 16 16">
    <g opacity="0.4">
      <path d="M6.5 11.5L10 8L6.5 4.5" stroke="#F06724" stroke-width="2"/>
    </g>
  </symbol>
  <symbol id="arrow-down" viewBox="0 0 16 16">
    <path d="M13.5 9L8 14.5M8 14.5L2.5 9M8 14.5V0" stroke-width="2"/>
  </symbol>
  <symbol id="arrow-up" viewBox="0 0 16 16">
    <g>
      <path d="M2.5 7L8 1.5M8 1.5L13.5 7M8 1.5V16" stroke-width="2"/>
    </g>
  </symbol>
  <symbol id="arrow-left" viewBox="0 0 16 16">
    <path
      fill-rule="evenodd"
      clip-rule="evenodd"
      d="M4.05726 8.99997L8.67798 13.2653L7.32142 14.7349L0.821424 8.73486L0.0566406 8.02891L0.792597 7.29295L6.7926 1.29295L8.20681 2.70717L3.91401 6.99997L15.9993 6.99997L15.9993 8.99997L4.05726 8.99997Z"/>
  </symbol>
  <symbol id="arrow-right" viewBox="0 0 16 16">
    <path fill-rule="evenodd" clip-rule="evenodd" d="M11.9427 7.00003L7.32202 2.73474L8.67858 1.26514L15.1786 7.26514L15.9434 7.97109L15.2074 8.70705L9.2074 14.707L7.79319 13.2928L12.086 9.00003H0.000738144V7.00003H11.9427Z"/>
  </symbol>
  <symbol id="long-arrow-right" width="20" height="16" viewBox="0 0 20 16" fill="none">
    <path d="M13 2.5L18.5 8M18.5 8L13 13.5M18.5 8H0" stroke="white" stroke-width="2"/>
  </symbol>
  <symbol id="chair" viewBox="0 0 20 20" fill="none">
    <g clip-path="url(#clip0)">
      <path d="M1 12a1 1 0 011-1h16a1 1 0 110 2H2a1 1 0 01-1-1zM9 13h2v7H9z" fill="#F06724"/><path d="M4 13V4a3 3 0 013-3h6a3 3 0 013 3v9" stroke="#F06724" stroke-width="2"/><path fill-rule="evenodd" clip-rule="evenodd" d="M3.586 20l5.707-5.707L10 15l.707-.707L16.414 20h-2.828L10 16.414 6.414 20H3.586z" fill="#F06724"/>
    </g>
  </symbol>
  <symbol id="checkmark" viewBox="0 0 12 12">
    <path d="M1.5 6.5L4 9L10.5 2.5" stroke="#333333" stroke-width="2"/>
  </symbol>
  <symbol id="eatery" viewBox="0 0 20 20">
    <path
      fill-rule="evenodd"
      clip-rule="evenodd"
      d="M3 1H1V6C1 7.86384 2.27477 9.42994 4 9.87398V19H6V9.87398C7.72523 9.42994 9 7.86384 9 6V1H7V6C7 6.74028 6.5978 7.38663 6 7.73244V1H4V7.73244C3.4022 7.38663 3 6.74028 3 6V1ZM19 1C18.305 1 17.6337 1.10128 17 1.28988C14.1085 2.15043 12 4.82898 12 8V11V13H14H17V19H19V13V11V3V1ZM14 8C14 5.94968 15.2341 4.1876 17 3.41604V11H14V8Z"
      fill="#F06724"/>
  </symbol>
  <symbol id="gear" viewBox="0 0 20 20" fill="none">
    <path fill-rule="evenodd" clip-rule="evenodd" d="M16 2H4V18H16V2ZM4 0H2V2V18V20H4H16H18V18V2V0H16H4Z" fill="#F06724"/>
    <path d="M9 5C9 4.44772 9.44772 4 10 4C10.5523 4 11 4.44772 11 5C11 5.55228 10.5523 6 10 6C9.44772 6 9 5.55228 9 5Z" fill="#F06724"/>
    <path d="M7 12C7 10.3431 8.34315 9 10 9C11.6569 9 13 10.3431 13 12C13 13.6569 11.6569 15 10 15C8.34315 15 7 13.6569 7 12Z" stroke="#F06724" stroke-width="2"/>
  </symbol>
  <symbol id="gym" viewBox="0 0 20 20" fill="none">
    <path d="M17 18L11 13V8L16.5 4.5" stroke="#F06724" stroke-width="2"/>
    <path d="M3 18L9 13V8L3.5 4.5" stroke="#F06724" stroke-width="2"/>
    <circle cx="10" cy="3" r="2" fill="#F06724"/>
  </symbol>
  <symbol id="internet" viewBox="0 0 20 20">
    <path
      fill-rule="evenodd"
      clip-rule="evenodd"
      d="M11.8025 17.7961C15.0362 17.0515 17.5208 14.3467 17.9381 11H14.107C13.9391 13.3817 13.171 15.7291 11.8025 17.7961ZM8.19748 17.7961C6.829 15.7291 6.06086 13.3817 5.89305 11H2.06189C2.47923 14.3467 4.9638 17.0515 8.19748 17.7961ZM7.89886 11C8.06909 13.0724 8.76947 15.1094 10 16.8908C11.2305 15.1094 11.9309 13.0724 12.1011 11H7.89886ZM12.1011 9H7.89886C8.06909 6.92761 8.76947 4.89058 10 3.1092C11.2305 4.89058 11.9309 6.92761 12.1011 9ZM14.107 9H17.9381C17.5208 5.65326 15.0362 2.94852 11.8025 2.20389C13.171 4.27092 13.9391 6.61827 14.107 9ZM8.19748 2.20389C6.829 4.27092 6.06086 6.61827 5.89305 9H2.06189C2.47923 5.65326 4.9638 2.94852 8.19748 2.20389ZM10 20C15.5228 20 20 15.5228 20 10C20 4.47715 15.5228 0 10 0C4.47715 0 0 4.47715 0 10C0 15.5228 4.47715 20 10 20Z"
      fill="#F06724"/>
  </symbol>
  <symbol id="maximize" viewBox="0 0 16 16">
    <path fill-rule="evenodd" clip-rule="evenodd" d="M10 2H14V6H16V2V0H14H10V2ZM6 2V0H2H0V2V6H2V2H6ZM2 10H0V14V16H2H6V14H2V10ZM10 14V16H14H16V14V10H14V14H10Z" fill="#333333"/>
  </symbol>
  <symbol id="meeting" viewBox="0 0 20 20">
    <rect width="20" height="20" fill="white"/>
    <path d="M15 8H5V10H15V8Z" fill="#F06724"/>
    <path d="M11 9H9V20H11V9Z" fill="#F06724"/>
    <path d="M1 2C1 3.10457 1.89543 4 3 4C4.10457 4 5 3.10457 5 2C5 0.895431 4.10457 0 3 0C1.89543 0 1 0.895431 1 2Z" fill="#F06724"/>
    <path d="M15 2C15 3.10457 15.8954 4 17 4C18.1046 4 19 3.10457 19 2C19 0.895431 18.1046 0 17 0C15.8954 0 15 0.895431 15 2Z" fill="#F06724"/>
    <path d="M3 5H1V14H4V20H6V12H3V5Z" fill="#F06724"/>
    <path d="M17 5V12H14V20H16V14H19V5H17Z" fill="#F06724"/>
  </symbol>
  <symbol id="meetup" viewBox="0 0 20 20" fill="none">
    <path d="M3 19V7H4L10 11L16 7H17V19" stroke="#F06724" stroke-width="2"/>
    <rect x="14" y="1" width="4" height="4" rx="2" fill="#F06724"/>
    <rect x="2" y="1" width="4" height="4" rx="2" fill="#F06724"/>
  </symbol>
  <symbol id="menu" viewBox="0 0 16 16">
    <path fill-rule="evenodd" clip-rule="evenodd" d="M1 2H15V4H1V2ZM1 7H15V9H1V7ZM15 12H1V14H15V12Z" fill="white"/>
  </symbol>
  <symbol id="parking" viewBox="0 0 20 20" fill="none">
    <path fill-rule="evenodd" clip-rule="evenodd" d="M9 8H11C11.5523 8 12 8.44772 12 9C12 9.55228 11.5523 10 11 10H9V8ZM7 7V6H9H11C12.6569 6 14 7.34315 14 9C14 10.6569 12.6569 12 11 12H9V14H7V12V10V8V7Z" fill="#F06724"/>
    <rect x="1" y="1" width="18" height="18" rx="9" stroke="#F06724" stroke-width="2"/>
  </symbol>
  <symbol id="phone-booth" viewBox="0 0 20 20">
    <rect width="20" height="20" fill="white"/>
    <path fill-rule="evenodd" clip-rule="evenodd" d="M16 2H4V18H16V2ZM4 0H2V2V18V20H4H16H18V18V2V0H16H4Z" fill="#F06724"/>
    <rect y="18" width="20" height="2" fill="#F06724"/>
    <path fill-rule="evenodd" clip-rule="evenodd" d="M8 8C8 6.89543 8.89543 6 10 6H12V8H10V12H12V14H10C8.89543 14 8 13.1046 8 12V8Z" fill="#F06724"/>
  </symbol>
  <symbol id="pic" viewBox="0 0 20 20">
    <path
      fill-rule="evenodd"
      clip-rule="evenodd"
      d="M16 17V3H0V17H16ZM2 5H14V15H12.4142L6.70711 9.29289L6 8.58579L5.29289 9.29289L2 12.5858V5ZM6 11.4142L2.41421 15H9.58579L6 11.4142ZM11 9C10.4477 9 10 8.55228 10 8C10 7.44772 10.4477 7 11 7C11.5523 7 12 7.44772 12 8C12 8.55228 11.5523 9 11 9Z"
      fill="white"/>
    <rect x="18" y="3" width="2" height="14" fill="white"/>
  </symbol>
  <symbol id="projector" viewBox="0 0 20 20">
    <path
      fill-rule="evenodd"
      clip-rule="evenodd"
      d="M10 10C11.6569 10 13 8.65685 13 7C13 5.34315 11.6569 4 10 4C8.34315 4 7 5.34315 7 7C7 8.65685 8.34315 10 10 10ZM10 12C12.7614 12 15 9.76142 15 7H18V14H2L2 16V7H5C5 9.76142 7.23858 12 10 12ZM5.41604 5C6.1876 3.2341 7.94968 2 10 2C12.0503 2 13.8124 3.2341 14.584 5H20V16H18V18H16V16H4L4 18H2V16H0L1.90735e-06 5H5.41604Z"
      fill="#F06724"/>
  </symbol>
  <symbol id="rooms" viewBox="0 0 20 22">
    <path
      fill-rule="evenodd"
      clip-rule="evenodd"
      d="M10 0.445801L10.3162 0.55121L19.3162 3.55121L20 3.77913V4.49989V16.4999V17.184L19.3624 17.4319L10.3624 20.9319L10 21.0728L9.63755 20.9319L0.637554 17.4319L0 17.184V16.4999V4.49989V3.77913L0.683772 3.55121L9.68377 0.55121L10 0.445801ZM2 5.88732L9 8.22065V18.538L6.5 17.5658V11.9144L4.5 11.2477V16.788L2 15.8158V5.88732ZM11 18.538L18 15.8158V5.88732L11 8.22065V18.538ZM10 6.4458L15.8377 4.49989L10 2.55399L4.16228 4.49989L10 6.4458ZM13.5 11.9144V14.7521L15.5 14.0854V11.2477L13.5 11.9144Z"
      fill="#F06724"/>
  </symbol>
  <symbol id="route" viewBox="0 0 16 16">
    <circle cx="10.5" cy="13.5" r="2.5" fill="#0F0F15"/>
    <path d="M5.5 2.5L2.5 5.5C1.39543 6.60457 1.39543 8.39543 2.5 9.5V9.5C3.60457 10.6046 5.39543 10.6046 6.5 9.5L9.5 6.5C10.6046 5.39543 12.3954 5.39543 13.5 6.5V6.5C14.6046 7.60457 14.6046 9.39543 13.5 10.5L11 13" stroke="#0F0F15" stroke-width="2"/>
    <path d="M2.5 1L8.00009 0L7 5.5L2.5 1Z" fill="#0F0F15"/>
  </symbol>
  <symbol id="screen" viewBox="0 0 20 20" fill="none">
    <rect x="1" y="2" width="18" height="12" stroke="#F06724" stroke-width="2"/>
    <rect x="4" y="17" width="12" height="2" fill="#F06724"/>
    <rect x="9" y="15" width="2" height="2" fill="#F06724"/>
  </symbol>
  <symbol id="shower" viewBox="0 0 20 20" fill="none">
    <rect y="13" width="20" height="2" fill="#F06724"/>
    <rect x="5" y="17" width="2" height="2" rx="1" fill="#F06724"/>
    <rect x="1" y="17" width="2" height="2" rx="1" fill="#F06724"/>
    <rect x="9" width="2" height="5" fill="#F06724"/>
    <rect x="9" y="17" width="2" height="2" rx="1" fill="#F06724"/>
    <rect x="13" y="17" width="2" height="2" rx="1" fill="#F06724"/>
    <rect x="17" y="17" width="2" height="2" rx="1" fill="#F06724"/>
    <path d="M2 12C2 7.58172 5.58172 4 10 4C14.4183 4 18 7.58172 18 12V14H2V12Z" stroke="#F06724" stroke-width="2"/>
  </symbol>
  <symbol id="social-facebook" viewBox="0 0 20 20">
    <path
      fill-rule="evenodd"
      clip-rule="evenodd"
      d="M10 1C14.9702 1 19 5.02981 19 10C19 14.493 15.7093 18.2166 11.4061 18.8912V12.6022H13.5033L13.902 10H13.902L13.902 9.99995H11.4061V8.31163C11.4061 7.59907 11.7554 6.9055 12.873 6.9055H14.0083V4.69062C14.0083 4.69062 14.0083 4.69062 14.0083 4.69062V4.69057C14.0083 4.69057 12.9781 4.51465 11.9934 4.51465C9.93797 4.51465 8.59386 5.76004 8.59386 8.01669V9.99995H6.30811V12.6021H6.30811V12.6022H8.59386V18.8911L8.59387 18.8912C4.29068 18.2153 1 14.4918 1 10C1 5.02981 5.02981 1 10 1Z"/>
  </symbol>
  <symbol id="social-instagram" viewBox="0 0 20 20">
    <path
      fill-rule="evenodd"
      clip-rule="evenodd"
      d="M9.99998 1C7.55571 1 7.24926 1.01036 6.28931 1.05416C5.33133 1.09789 4.67712 1.25001 4.10462 1.47251C3.51279 1.70251 3.01088 2.01025 2.51055 2.51058C2.01021 3.01092 1.70247 3.51283 1.47247 4.10466C1.24997 4.67716 1.09785 5.33137 1.05412 6.28935C1.01032 7.24926 1 7.55575 1 10C1 12.4443 1.01032 12.7508 1.05412 13.7107C1.09785 14.6687 1.24997 15.3229 1.47247 15.8954C1.70247 16.4872 2.01021 16.9891 2.51055 17.4895C3.01088 17.9898 3.51279 18.2975 4.10462 18.5275C4.67712 18.75 5.33133 18.9021 6.28931 18.9459C7.24926 18.9897 7.55571 19 9.99998 19C12.4443 19 12.7507 18.9897 13.7107 18.9459C14.6686 18.9021 15.3228 18.75 15.8953 18.5275C16.4872 18.2975 16.9891 17.9898 17.4894 17.4895C17.9898 16.9891 18.2975 16.4872 18.5275 15.8954C18.75 15.3229 18.9021 14.6687 18.9458 13.7107C18.9896 12.7508 19 12.4443 19 10C19 7.55575 18.9896 7.24926 18.9458 6.28935C18.9021 5.33137 18.75 4.67716 18.5275 4.10466C18.2975 3.51283 17.9898 3.01092 17.4894 2.51058C16.9891 2.01025 16.4872 1.70251 15.8953 1.47251C15.3228 1.25001 14.6686 1.09789 13.7107 1.05416C12.7507 1.01036 12.4443 1 9.99998 1ZM5.37842 10.0001C5.37842 7.44761 7.44761 5.37842 10.0001 5.37842C12.5525 5.37842 14.6217 7.44761 14.6217 10.0001C14.6217 12.5525 12.5525 14.6217 10.0001 14.6217C7.44761 14.6217 5.37842 12.5525 5.37842 10.0001ZM15.8841 5.19583C15.8841 5.7923 15.4006 6.27585 14.8041 6.27585C14.2077 6.27585 13.7241 5.7923 13.7241 5.19583C13.7241 4.59935 14.2077 4.11584 14.8041 4.11584C15.4006 4.11584 15.8841 4.59935 15.8841 5.19583Z"/>
    <path d="M7 10C7 11.6569 8.34317 13 10 13C11.6569 13 13 11.6569 13 10C13 8.34317 11.6569 7 10 7C8.34317 7 7 8.34317 7 10Z"/>
  </symbol>
  <symbol id="social-vk" viewBox="0 0 20 20">
    <path
      fill-rule="evenodd"
      clip-rule="evenodd"
      d="M12.76 1H7.24C2.2 1 1 2.2 1 7.24V12.76C1 17.8 2.2 19 7.24 19H12.76C17.8 19 19 17.8 19 12.76V7.24C19 2.2 17.8 1 12.76 1ZM15.3438 6.71875C15.7407 6.71875 15.8241 6.9231 15.7407 7.20121C15.5739 7.96597 13.9748 10.2186 13.9748 10.2186C13.8357 10.441 13.7801 10.5523 13.9748 10.8026C14.0433 10.8986 14.1896 11.0419 14.357 11.2058C14.5291 11.3744 14.7235 11.5648 14.8786 11.7481C15.4424 12.3824 15.8673 12.9174 15.9856 13.2862C16.0938 13.6562 15.9063 13.8437 15.5313 13.8437H14.2188C13.8672 13.8437 13.6902 13.6468 13.3077 13.2213C13.1456 13.041 12.9465 12.8195 12.6816 12.5546C11.9029 11.8037 11.5692 11.7064 11.3745 11.7064C11.1103 11.7064 11.0313 11.7812 11.0313 12.1562V13.3333C11.0313 13.6562 10.9281 13.8437 10.0938 13.8437C8.7033 13.8437 7.17521 12.9996 6.09064 11.4422C4.46377 9.16181 4.0188 7.43758 4.0188 7.08994C4.0188 6.89528 4.0938 6.71875 4.4688 6.71875H5.7813C6.11674 6.71875 6.24292 6.86556 6.36872 7.22901C7.01064 9.09892 8.09297 10.7331 8.53791 10.7331C8.70477 10.7331 8.7813 10.6562 8.7813 10.2325V8.29969C8.75118 7.74951 8.55899 7.51158 8.41664 7.33535C8.32873 7.22652 8.25983 7.14121 8.25983 7.02043C8.25983 6.87364 8.38525 6.71875 8.5938 6.71875H10.6563C10.9344 6.71875 11.0313 6.86748 11.0313 7.20121V9.80143C11.0313 10.0795 11.152 10.1768 11.2355 10.1768C11.4023 10.1768 11.5414 10.0795 11.8473 9.77361C12.7928 8.71684 13.4603 7.08994 13.4603 7.08994C13.5437 6.89528 13.6976 6.71875 14.0313 6.71875H15.3438Z"/>
  </symbol>
  <symbol id="space" viewBox="0 0 24 24">
    <path
      fill-rule="evenodd"
      clip-rule="evenodd"
      d="M12 3.51495L9.17156 6.34338L7.75735 4.92916L10.5858 2.10074L12 0.686523L13.4142 2.10074L16.2426 4.92916L14.8284 6.34338L12 3.51495ZM4.92892 7.75759L6.34313 9.1718L3.51471 12.0002L6.34313 14.8287L4.92892 16.2429L2.10049 13.4144L0.686279 12.0002L2.10049 10.586L4.92892 7.75759ZM7.75735 19.0713L9.17156 17.6571L12 20.4855L14.8284 17.6571L16.2426 19.0713L13.4142 21.8997L12 23.3139L10.5858 21.8997L7.75735 19.0713ZM19.0711 16.2429L17.6568 14.8287L20.4853 12.0002L17.6568 9.1718L19.0711 7.75759L21.8995 10.586L23.3137 12.0002L21.8995 13.4144L19.0711 16.2429ZM12 14.0002C13.1046 14.0002 14 13.1048 14 12.0002C14 10.8957 13.1046 10.0002 12 10.0002C10.8954 10.0002 10 10.8957 10 12.0002C10 13.1048 10.8954 14.0002 12 14.0002Z"
      fill="#F06724"/>
  </symbol>
  <symbol id="time" viewBox="0 0 20 20">
    <path
      fill-rule="evenodd"
      clip-rule="evenodd"
      d="M10 18C14.4183 18 18 14.4183 18 10C18 5.58172 14.4183 2 10 2C5.58172 2 2 5.58172 2 10C2 14.4183 5.58172 18 10 18ZM10 20C15.5228 20 20 15.5228 20 10C20 4.47715 15.5228 0 10 0C4.47715 0 0 4.47715 0 10C0 15.5228 4.47715 20 10 20ZM10 10V6H8V10V12H10H14V10H10Z"
      fill="#F06724"/>
  </symbol>
  <symbol id="yummies" viewBox="0 0 23 20" fill="none">
    <rect x="1" y="18" width="18" height="2" fill="#F06724"/>
    <path d="M2 4H18V8C18 12.4183 14.4183 16 10 16C5.58172 16 2 12.4183 2 8V4Z" stroke="#F06724" stroke-width="2"/>
    <path d="M18 6H19.9098C21.0642 6 22 6.9358 22 8.09017C22 8.88187 21.5527 9.60562 20.8446 9.95967L18 11.382V6Z" stroke="#F06724" stroke-width="2"/>
  </symbol>
</svg>
